<svg width="21" height="23" viewBox="0 0 21 23" fill="none" xmlns="http://www.w3.org/2000/svg">
<path d="M2.98075 15.4423V7.94225H4.48075V15.4423H2.98075ZM8.48075 15.4423V7.94225H9.98075V15.4423H8.48075ZM0 5.94225V4.51925L9.23075 0L18.4615 4.51925V5.94225H0ZM3.5615 4.44225H14.9L9.23075 1.69225L3.5615 4.44225ZM0 18.9423V17.4423H11.5787C11.5992 17.7089 11.6282 17.9631 11.6655 18.2048C11.7027 18.4464 11.7552 18.6923 11.823 18.9423H0ZM13.9808 12.202V7.94225H15.4808V11.452L13.9808 12.202ZM17.2307 22.0575C16.1641 21.7935 15.282 21.1823 14.5845 20.224C13.8872 19.2657 13.5385 18.2013 13.5385 17.0308V14.673L17.2307 12.827L20.923 14.673V17.0308C20.923 18.2013 20.5743 19.2657 19.877 20.224C19.1795 21.1823 18.2974 21.7935 17.2307 22.0575ZM16.5058 19.2307L19.7595 15.9923L18.9212 15.1538L16.5058 17.5385L15.5307 16.5635L14.6923 17.4172L16.5058 19.2307Z" fill="white"/>
</svg>
