<svg width="40" height="40" viewBox="0 0 40 40" fill="none" xmlns="http://www.w3.org/2000/svg">
<circle cx="20" cy="20" r="20" fill="#0052A4"/>
<g clip-path="url(#clip0_692_4164)">
<path fill-rule="evenodd" clip-rule="evenodd" d="M19.9999 30.9818L18.7939 26.5459L13.8614 27.1732L14.4829 25.2173L9 20.6956L10.4887 20.0811L9.34655 16.1917L18.7936 26.545V26.545L9.34655 16.1917L12.9943 16.949L13.4644 15.1889L16.3605 17.6037L18.3193 24.8002L14.9564 12.4308L17.4282 13.3388L19.9999 9.00023V9L20 9.00012L20 9V9.00023L22.5717 13.3388L25.0435 12.4308L22.9902 19.9834L23.6379 17.6037L26.534 15.1889L27.0058 16.949L30.6518 16.1917L29.5113 20.0811L31 20.6956L25.5171 25.2173L26.137 27.1732L21.206 26.5461L20 30.9818V30.9824L20 30.9821L19.9999 30.9824V30.9818Z" fill="white"/>
</g>
<defs>
<clipPath id="clip0_692_4164">
<rect width="22" height="22" fill="white" transform="translate(9 9)"/>
</clipPath>
</defs>
</svg>
