<svg width="16" height="16" viewBox="0 0 16 16" fill="none" xmlns="http://www.w3.org/2000/svg">
<path d="M7.71418 1.39027C9.77386 1.39027 10.0181 1.39798 10.8316 1.43484C11.5833 1.46912 11.9921 1.59512 12.2638 1.70055C12.6238 1.84026 12.881 2.0074 13.151 2.2774C13.421 2.54739 13.5881 2.80453 13.7278 3.16453C13.8332 3.43624 13.9592 3.84509 13.9935 4.59679C14.0304 5.41021 14.0381 5.65449 14.0381 7.71418C14.0381 9.77386 14.0304 10.0181 13.9935 10.8316C13.9592 11.5833 13.8332 11.9921 13.7278 12.2638C13.5881 12.6238 13.421 12.881 13.151 13.151C12.881 13.421 12.6238 13.5881 12.2638 13.7278C11.9921 13.8332 11.5833 13.9592 10.8316 13.9935C10.0181 14.0304 9.77472 14.0381 7.71418 14.0381C5.65363 14.0381 5.41021 14.0304 4.59679 13.9935C3.84509 13.9592 3.43624 13.8332 3.16453 13.7278C2.80453 13.5881 2.54739 13.421 2.2774 13.151C2.0074 12.881 1.84026 12.6238 1.70055 12.2638C1.59512 11.9921 1.46912 11.5833 1.43484 10.8316C1.39798 10.0181 1.39027 9.77386 1.39027 7.71418C1.39027 5.65449 1.39798 5.41021 1.43484 4.59679C1.46912 3.84509 1.59512 3.43624 1.70055 3.16453C1.84026 2.80453 2.0074 2.54739 2.2774 2.2774C2.54739 2.0074 2.80453 1.84026 3.16453 1.70055C3.43624 1.59512 3.84509 1.46912 4.59679 1.43484C5.41021 1.39798 5.65449 1.39027 7.71418 1.39027ZM7.71418 0C5.61935 0 5.35621 0.00857122 4.53336 0.046285C3.71223 0.0839987 3.15167 0.214283 2.66139 0.404566C2.15397 0.601706 1.72369 0.865702 1.29512 1.29512C0.866559 1.72369 0.602563 2.15397 0.405423 2.66139C0.214283 3.15167 0.0839987 3.71223 0.046285 4.53336C0.00857122 5.35621 0 5.61935 0 7.71418C0 9.809 0.00857122 10.0721 0.046285 10.895C0.0839987 11.7161 0.214283 12.2767 0.404566 12.7678C0.601706 13.2752 0.865702 13.7055 1.29427 14.1341C1.72283 14.5626 2.15311 14.8266 2.66053 15.0238C3.15081 15.2141 3.71223 15.3452 4.53336 15.3821C5.35621 15.4198 5.61935 15.4284 7.71418 15.4284C9.809 15.4284 10.0721 15.4198 10.895 15.3821C11.7161 15.3444 12.2767 15.2141 12.7678 15.0238C13.2752 14.8266 13.7055 14.5626 14.1341 14.1341C14.5626 13.7055 14.8266 13.2752 15.0238 12.7678C15.2141 12.2775 15.3452 11.7161 15.3821 10.895C15.4198 10.0721 15.4284 9.809 15.4284 7.71418C15.4284 5.61935 15.4198 5.35621 15.3821 4.53336C15.3444 3.71223 15.2141 3.15167 15.0238 2.66053C14.8266 2.15311 14.5626 1.72283 14.1341 1.29427C13.7055 0.865702 13.2752 0.601706 12.7678 0.404566C12.2775 0.214283 11.7161 0.0831416 10.895 0.046285C10.0721 0.00857122 9.809 0 7.71418 0ZM7.71418 3.75252C5.52678 3.75252 3.75252 5.52592 3.75252 7.71418C3.75252 9.90243 5.52678 11.6758 7.71418 11.6758C9.90157 11.6758 11.6758 9.90243 11.6758 7.71418C11.6758 5.52592 9.90157 3.75252 7.71418 3.75252ZM7.71418 10.2856C6.29391 10.2856 5.14278 9.13444 5.14278 7.71418C5.14278 6.29391 6.29391 5.14278 7.71418 5.14278C9.13444 5.14278 10.2856 6.29391 10.2856 7.71418C10.2856 9.13444 9.13444 10.2856 7.71418 10.2856ZM11.8318 2.67082C11.321 2.67082 10.9061 3.08567 10.9061 3.59652C10.9061 4.10737 11.321 4.52222 11.8318 4.52222C12.3427 4.52222 12.7575 4.10737 12.7575 3.59652C12.7575 3.08567 12.3435 2.67082 11.8318 2.67082Z" fill="white"/>
</svg>
