<svg width="16" height="16" viewBox="0 0 16 16" fill="none" xmlns="http://www.w3.org/2000/svg">
<path d="M14.3141 0H1.11427C0.49885 0 0 0.49885 0 1.11427V14.3141C0 14.9295 0.49885 15.4284 1.11427 15.4284H14.3141C14.9295 15.4284 15.4284 14.9295 15.4284 14.3141V1.11427C15.4284 0.49885 14.9295 0 14.3141 0ZM4.57622 13.1467H2.28597V5.78392H4.57622V13.1467ZM3.43195 4.77765C2.69739 4.77765 2.10426 4.1828 2.10426 3.45081C2.10426 2.71796 2.69653 2.12397 3.43195 2.12397C4.16394 2.12397 4.75793 2.71882 4.75793 3.45081C4.75793 4.18365 4.16394 4.77765 3.43195 4.77765ZM13.1475 13.1467H10.8598V9.56644C10.8598 8.71273 10.8453 7.61389 9.67101 7.61389C8.48045 7.61389 8.29874 8.54473 8.29874 9.50472V13.1467H6.01277V5.78392H8.20617V6.79019H8.23788C8.54302 6.21163 9.28958 5.60135 10.403 5.60135C12.7198 5.60135 13.1484 7.12618 13.1484 9.10873L13.1475 13.1467Z" fill="white"/>
</svg>
