<svg width="23" height="16" viewBox="0 0 23 16" fill="none" xmlns="http://www.w3.org/2000/svg">
<path d="M21.8815 3.35296C21.8815 3.35296 21.666 1.83009 21.0029 1.15928C20.163 0.278492 19.2204 0.274072 18.7883 0.223236C15.695 1.50489e-07 11.0557 0 11.0557 0H11.0457C11.0457 0 6.40642 1.50489e-07 3.31317 0.223236C2.88217 0.275177 1.9406 0.279597 1.0996 1.15928C0.436525 1.83009 0.221025 3.35296 0.221025 3.35296C0.221025 3.35296 0 5.14216 0 6.93025V8.60673C0 10.3948 0.221025 12.184 0.221025 12.184C0.221025 12.184 0.436525 13.7069 1.0996 14.3777C1.9406 15.2585 3.04463 15.2298 3.53641 15.3226C5.30461 15.4917 11.0513 15.5447 11.0513 15.5447C11.0513 15.5447 15.6961 15.5381 18.7883 15.3137C19.2204 15.2618 20.1619 15.2574 21.0029 14.3777C21.666 13.7069 21.8815 12.184 21.8815 12.184C21.8815 12.184 22.1025 10.3959 22.1025 8.60673V6.93025C22.1025 5.14216 21.8815 3.35296 21.8815 3.35296ZM8.76919 10.6391L8.76808 4.42824L14.7402 7.5447L8.76919 10.6391Z" fill="white"/>
</svg>
